<?xml version="1.0" encoding="utf-8"?>
<!-- Generator: Adobe Illustrator 19.0.0, SVG Export Plug-In . SVG Version: 6.00 Build 0)  -->
<svg version="1.1" id="Layer_1" xmlns="http://www.w3.org/2000/svg" xmlns:xlink="http://www.w3.org/1999/xlink" x="0px" y="0px"
	 viewBox="0 0 1000 1000" style="enable-background:new 0 0 1000 1000;" xml:space="preserve">
<style type="text/css">
	.st0{fill:#FFFFFF;}
</style>
<path class="st0" d="M182.6,0C81.4,0,0,81.4,0,182.6v634.8C0,918.6,81.4,1000,182.6,1000h344.1V609.1H423.3V468.3h103.4V348.1
	c0-94.5,61.1-181.2,201.8-181.2c57,0,99.1,5.5,99.1,5.5l-3.3,131.4c0,0-43-0.4-89.8-0.4c-50.7,0-58.9,23.4-58.9,62.2v102.8h152.8
	l-6.7,140.8H675.5V1000h141.9c101.1,0,182.6-81.4,182.6-182.6V182.6C1000,81.4,918.6,0,817.4,0L182.6,0L182.6,0z"/>
</svg>
